#!OML:ASF Y:\EmotionMaleHayes\Project 1\Capture day 1\Session 1\Male1.ASF
:FULLY-SPECIFIED
:DEGREES
79
root -28.5591 17.1452 0.17412 22.4404 86.101 20.1737
lowerback 4.51705 0.926344 -3.92677
upperback 1.159 1.06856 -0.257328
thorax -1.40609 0.551584 1.87648
lowerneck -20.8766 2.40922 3.90258
upperneck 25.459 2.79717 -1.56292
head 11.9057 1.52293 -0.766398
rclavicle 2.90723e-015 8.64713e-015
rhumerus -32.7758 2.01395 -88.4168
rradius 29.9893
rwrist 6.42068
rhand -12.2909 -26.7738
rfingers 7.12502
rthumb 13.7767 -56.2976
lclavicle 2.90723e-015 8.64713e-015
lhumerus -29.4205 -10.9682 90.6619
lradius 22.2702
lwrist -16.2749
lhand -15.7471 -26.704
lfingers 7.12502
lthumb 10.4441 3.01659
rfemur 8.12675 -3.26416 12.8199
rtibia 3.75714
rfoot -15.3339 -4.16164
rtoes -1.10847
lfemur 10.9616 0.470563 -16.755
ltibia -2.49155
lfoot -10.8934 8.92387
ltoes 0
80
root -28.5587 17.1453 0.175072 22.9056 86.1613 20.6469
lowerback 4.56081 0.911916 -3.93676
upperback 1.11061 1.04512 -0.255555
thorax -1.47912 0.541669 1.88419
lowerneck -20.7202 2.39552 3.88057
upperneck 25.3819 2.78183 -1.52959
head 11.8435 1.51934 -0.754207
rclavicle 4.93234e-015 3.97569e-015
rhumerus -32.8808 2.14121 -88.4637
rradius 30.0326
rwrist 6.25883
rhand -12.2979 -26.7372
rfingers 7.12502
rthumb 13.7699 -56.2616
lclavicle 4.93234e-015 3.97569e-015
lhumerus -29.5671 -11.2409 90.7853
lradius 22.402
lwrist -16.0499
lhand -15.2601 -26.6977
lfingers 7.12502
lthumb 10.9139 2.99863
rfemur 8.18718 -3.02022 12.9142
rtibia 3.69328
rfoot -15.5451 -4.2339
rtoes -0.722877
lfemur 10.8751 0.708728 -16.6697
ltibia -2.31426
lfoot -10.876 8.63537
ltoes 0
81
root -28.5578 17.1448 0.174783 23.5324 86.2388 21.2994
lowerback 4.61625 0.884714 -3.96368
upperback 1.08187 1.00435 -0.232142
thorax -1.53804 0.522754 1.92479
lowerneck -20.6318 2.39966 3.82661
upperneck 25.3592 2.80241 -1.49994
head 11.8165 1.52815 -0.731519
rclavicle -1.06226e-014 8.24956e-015
rhumerus -32.9474 2.22158 -88.4523
rradius 30.0628
rwrist 6.22178
rhand -12.3516 -26.5291
rfingers 7.12502
rthumb 13.7181 -56.057
lclavicle -1.06226e-014 8.24956e-015
lhumerus -29.6337 -11.1834 90.8427
lradius 22.4386
lwrist -16.066
lhand -15.0893 -26.4568
lfingers 7.12502
lthumb 11.0786 3.23084
rfemur 8.26946 -2.88332 12.9711
rtibia 3.63454
rfoot -15.6079 -4.40033
rtoes -0.389786
lfemur 10.9638 0.424863 -16.7683
ltibia -2.45158
lfoot -10.8284 8.8632
ltoes 0
82
root -28.5575 17.1441 0.173135 25.0563 86.2344 22.8136
lowerback 4.60951 0.886991 -4.05462
upperback 1.08416 1.00347 -0.245371
thorax -1.53309 0.522602 1.96231
lowerneck -20.6935 2.39066 3.77888
upperneck 25.428 2.79968 -1.4789
head 11.854 1.52545 -0.715366
rclavicle -8.19987e-016 4.67144e-015
rhumerus -32.9506 2.24005 -88.4453
rradius 30.1122
rwrist 6.16305
rhand -12.4581 -26.5025
rfingers 7.12502
rthumb 13.6155 -56.0373
lclavicle -8.19987e-016 4.67144e-015
lhumerus -29.5773 -11.1033 90.8656
lradius 22.4327
lwrist -16.1495
lhand -16.5031 -26.2408
lfingers 7.12502
lthumb 9.71478 3.5152
rfemur 8.26433 -2.96218 12.8365
rtibia 3.62943
rfoot -15.506 -4.45166
rtoes -0.407651
lfemur 11.0227 0.101375 -16.9998
ltibia -2.61548
lfoot -10.8425 9.16902
ltoes 0
83
root -28.5561 17.1439 0.172426 26.4844 86.1984 24.1958
lowerback 4.54117 0.901078 -4.13462
upperback 1.07167 1.02093 -0.280594
thorax -1.50954 0.531301 1.97069
lowerneck -20.7181 2.37003 3.75927
upperneck 25.4653 2.76492 -1.43603
head 11.8712 1.51408 -0.701384
rclavicle 8.07563e-016 -1.09332e-014
rhumerus -32.96 2.25749 -88.4758
rradius 30.1371
rwrist 6.09762
rhand -12.5192 -26.6097
rfingers 7.12502
rthumb 13.5567 -56.1484
lclavicle 8.07563e-016 -1.09332e-014
lhumerus -29.6039 -11.218 90.9318
lradius 22.5218
lwrist -16.0557
lhand -15.1825 -26.789
lfingers 7.12502
lthumb 10.9887 2.9034
rfemur 8.20636 -3.13044 12.6565
rtibia 3.6579
rfoot -15.4355 -4.3342
rtoes -0.563595
lfemur 10.9841 0.0509853 -17.1443
ltibia -2.64846
lfoot -10.8653 9.27269
ltoes 0
